<svg width="109" height="20" viewBox="0 0 109 20" fill="none" xmlns="http://www.w3.org/2000/svg">
<path d="M14.6506 16.04V17.74C13.2506 18.58 11.4706 19.06 9.53063 19.06C4.49063 19.06 0.610625 15.14 0.610625 10.18C0.610625 5.2 4.57063 1.28 9.73063 1.28C14.7506 1.28 18.4306 4.76 18.4306 9C18.4306 12.22 16.5906 14.32 14.1506 14.32C12.6706 14.32 11.8306 13.68 11.5106 12.72C10.8106 13.76 9.77063 14.32 8.49063 14.32C6.45063 14.32 5.07063 12.74 5.07063 10.46C5.07063 7.88 6.67063 5.9 8.95063 5.9C10.2106 5.9 11.1106 6.46 11.6106 7.52L11.8706 6.18H13.7106L12.9306 10.42C12.8706 10.74 12.8306 11.08 12.8306 11.34C12.8306 12.26 13.3306 12.76 14.2306 12.76C15.7106 12.76 16.5906 11.36 16.5906 9.18C16.5906 5.82 13.8706 2.84 9.73063 2.84C5.53063 2.84 2.45063 6.04 2.45063 10.18C2.45063 14.28 5.45063 17.5 9.53063 17.5C11.6506 17.5 13.4706 16.9 14.6506 16.04ZM7.01063 10.34C7.01063 11.76 7.73063 12.76 8.87063 12.76C10.1706 12.76 11.1306 11.5 11.1306 9.86C11.1306 8.34 10.4706 7.46 9.27063 7.46C7.85063 7.46 7.01063 8.76 7.01063 10.34ZM24.7284 15.22C21.8284 15.22 19.7884 12.94 19.7884 9.7C19.7884 6.5 21.8684 4.2 24.7284 4.2C27.3484 4.2 29.2484 5.94 29.6284 8.7H27.5084C27.2884 7 26.2284 5.98 24.7484 5.98C23.0084 5.98 21.8684 7.46 21.8684 9.7C21.8684 11.96 23.0084 13.42 24.7484 13.42C26.2484 13.42 27.2884 12.42 27.5284 10.7H29.6284C29.2684 13.5 27.3884 15.22 24.7284 15.22ZM35.7441 15.22C32.8441 15.22 30.8041 12.94 30.8041 9.7C30.8041 6.5 32.8841 4.2 35.7441 4.2C38.3641 4.2 40.2641 5.94 40.6441 8.7H38.5241C38.3041 7 37.2441 5.98 35.7641 5.98C34.0241 5.98 32.8841 7.46 32.8841 9.7C32.8841 11.96 34.0241 13.42 35.7641 13.42C37.2641 13.42 38.3041 12.42 38.5441 10.7H40.6441C40.2841 13.5 38.4041 15.22 35.7441 15.22ZM44.6973 9.02V15H42.6773V4.4H44.5573V6.16C45.2773 4.98 46.4773 4.2 47.9373 4.2C50.1173 4.2 51.5573 5.6 51.5573 8.14V15H49.5373V8.82C49.5373 7 48.7373 5.98 47.2373 5.98C45.8573 5.98 44.6973 7.14 44.6973 9.02ZM56.2598 15H54.2398V4.4H56.1198V6.16C56.8398 4.94 57.9798 4.2 59.4398 4.2C60.9998 4.2 62.1798 5 62.6598 6.4C63.3998 5.04 64.6198 4.2 66.2398 4.2C68.4198 4.2 69.8198 5.62 69.8198 8.14V15H67.7998V8.78C67.7998 7.02 67.0198 5.98 65.5398 5.98C64.1598 5.98 63.0398 7.14 63.0398 8.92V15H61.0198V8.78C61.0198 7.02 60.2398 5.98 58.7598 5.98C57.3598 5.98 56.2598 7.14 56.2598 8.92V15ZM79.1411 10.64V4.4H81.1611V15H79.2811V13.32C78.7211 14.42 77.4811 15.2 76.0411 15.2C73.9011 15.2 72.4211 13.94 72.4211 11.22V4.4H74.4411V10.82C74.4411 12.66 75.3611 13.42 76.6811 13.42C78.0411 13.42 79.1411 12.3 79.1411 10.64ZM92.3664 11.84C92.3664 13.92 90.7464 15.2 87.9264 15.2C85.1264 15.2 83.4664 13.82 83.2664 11.54H85.2064C85.2864 12.86 86.3464 13.68 87.9664 13.68C89.3864 13.68 90.3264 13.18 90.3264 12.18C90.3264 11.3 89.7864 10.92 88.4664 10.66L86.7464 10.34C84.7864 9.96 83.6864 8.96 83.6864 7.36C83.6864 5.5 85.3064 4.2 87.7664 4.2C90.3064 4.2 92.0264 5.56 92.2064 7.74H90.2664C90.1464 6.46 89.2064 5.72 87.7864 5.72C86.5064 5.72 85.6464 6.26 85.6464 7.18C85.6464 8.04 86.1864 8.44 87.4664 8.68L89.2664 9.02C91.3664 9.4 92.3664 10.32 92.3664 11.84ZM97.0319 1.94C97.0319 2.7 96.4319 3.28 95.5719 3.28C94.7119 3.28 94.0919 2.7 94.0919 1.94C94.0919 1.16 94.7119 0.599999 95.5719 0.599999C96.4319 0.599999 97.0319 1.16 97.0319 1.94ZM96.5919 15H94.5719V4.4H96.5919V15ZM103.576 15.22C100.676 15.22 98.6361 12.94 98.6361 9.7C98.6361 6.5 100.716 4.2 103.576 4.2C106.196 4.2 108.096 5.94 108.476 8.7H106.356C106.136 7 105.076 5.98 103.596 5.98C101.856 5.98 100.716 7.46 100.716 9.7C100.716 11.96 101.856 13.42 103.596 13.42C105.096 13.42 106.136 12.42 106.376 10.7H108.476C108.116 13.5 106.236 15.22 103.576 15.22Z" fill="white"/>
</svg>
