<svg width="180" height="44" viewBox="0 0 180 44" fill="none" xmlns="http://www.w3.org/2000/svg">
<path d="M33.6955 31.04V32.74C32.2955 33.58 30.5155 34.06 28.5755 34.06C23.5355 34.06 19.6555 30.14 19.6555 25.18C19.6555 20.2 23.6155 16.28 28.7755 16.28C33.7955 16.28 37.4755 19.76 37.4755 24C37.4755 27.22 35.6355 29.32 33.1955 29.32C31.7155 29.32 30.8755 28.68 30.5555 27.72C29.8555 28.76 28.8155 29.32 27.5355 29.32C25.4955 29.32 24.1155 27.74 24.1155 25.46C24.1155 22.88 25.7155 20.9 27.9955 20.9C29.2555 20.9 30.1555 21.46 30.6555 22.52L30.9155 21.18H32.7555L31.9755 25.42C31.9155 25.74 31.8755 26.08 31.8755 26.34C31.8755 27.26 32.3755 27.76 33.2755 27.76C34.7555 27.76 35.6355 26.36 35.6355 24.18C35.6355 20.82 32.9155 17.84 28.7755 17.84C24.5755 17.84 21.4955 21.04 21.4955 25.18C21.4955 29.28 24.4955 32.5 28.5755 32.5C30.6955 32.5 32.5155 31.9 33.6955 31.04ZM26.0555 25.34C26.0555 26.76 26.7755 27.76 27.9155 27.76C29.2155 27.76 30.1755 26.5 30.1755 24.86C30.1755 23.34 29.5155 22.46 28.3155 22.46C26.8955 22.46 26.0555 23.76 26.0555 25.34ZM43.8334 34.08C41.0534 34.08 39.2534 32.6 39.1334 30.2H41.0934C41.2134 31.68 42.1734 32.48 43.8134 32.48C45.6334 32.48 46.5934 31.5 46.5934 29.68V27.76C45.9934 29.04 44.7934 29.78 43.3534 29.78C40.7134 29.78 38.8334 27.6 38.8334 24.48C38.8334 21.32 40.6334 19.2 43.2934 19.2C44.8134 19.2 46.0134 19.94 46.7334 21.28V19.4H48.6134V29.64C48.6134 32.42 46.8334 34.08 43.8334 34.08ZM40.8734 24.48C40.8734 26.68 41.9534 28.02 43.7134 28.02C45.4334 28.02 46.5934 26.64 46.5934 24.54C46.5934 22.34 45.4534 20.94 43.7134 20.94C41.9734 20.94 40.8734 22.3 40.8734 24.48ZM53.8698 16.94C53.8698 17.7 53.2698 18.28 52.4098 18.28C51.5498 18.28 50.9298 17.7 50.9298 16.94C50.9298 16.16 51.5498 15.6 52.4098 15.6C53.2698 15.6 53.8698 16.16 53.8698 16.94ZM53.4298 30H51.4098V19.4H53.4298V30ZM55.474 24.7C55.474 21.48 57.314 19.2 60.174 19.2C61.594 19.2 62.834 19.92 63.574 21.22V15.64H65.594V30H63.714V28.1C62.954 29.44 61.674 30.2 60.174 30.2C57.314 30.2 55.474 27.88 55.474 24.7ZM57.574 24.7C57.574 27.06 58.814 28.4 60.574 28.4C62.294 28.4 63.574 27 63.574 24.66C63.574 22.28 62.254 20.98 60.574 20.98C58.814 20.98 57.574 22.3 57.574 24.7ZM72.762 30.2C69.702 30.2 67.642 27.98 67.642 24.64C67.642 21.5 69.782 19.2 72.702 19.2C75.862 19.2 77.962 21.76 77.602 25.2H69.702C69.862 27.36 70.942 28.62 72.722 28.62C74.222 28.62 75.262 27.8 75.602 26.42H77.602C77.082 28.78 75.262 30.2 72.762 30.2ZM72.662 20.72C71.042 20.72 69.942 21.88 69.722 23.86H75.462C75.362 21.9 74.302 20.72 72.662 20.72ZM83.9943 30.2C80.9943 30.2 78.7943 27.84 78.7943 24.7C78.7943 21.56 80.9943 19.2 83.9943 19.2C86.9943 19.2 89.1943 21.56 89.1943 24.7C89.1943 27.84 86.9943 30.2 83.9943 30.2ZM83.9943 28.42C85.7343 28.42 87.1143 27.02 87.1143 24.7C87.1143 22.38 85.7343 21 83.9943 21C82.2543 21 80.8943 22.38 80.8943 24.7C80.8943 27.02 82.2543 28.42 83.9943 28.42ZM93.2735 24.02V30H91.2535V19.4H93.1335V21.16C93.8535 19.98 95.0535 19.2 96.5135 19.2C98.6935 19.2 100.134 20.6 100.134 23.14V30H98.1135V23.82C98.1135 22 97.3135 20.98 95.8135 20.98C94.4335 20.98 93.2735 22.14 93.2735 24.02ZM111.185 30L108.785 22.12L106.365 30H104.325L101.265 19.4H103.245L105.385 27.12L107.785 19.4H109.785L112.145 27.14L114.285 19.4H116.285L113.205 30H111.185ZM124.021 30V28.36C123.361 29.54 122.181 30.2 120.621 30.2C118.421 30.2 116.981 28.94 116.981 27C116.981 24.92 118.641 23.84 121.801 23.84C122.421 23.84 122.921 23.86 123.781 23.96V23.18C123.781 21.66 122.961 20.8 121.561 20.8C120.081 20.8 119.181 21.68 119.121 23.16H117.281C117.381 20.78 119.081 19.2 121.561 19.2C124.181 19.2 125.701 20.68 125.701 23.2V30H124.021ZM118.901 26.94C118.901 28.04 119.721 28.76 121.021 28.76C122.721 28.76 123.781 27.7 123.781 26.08V25.22C123.001 25.12 122.441 25.1 121.921 25.1C119.901 25.1 118.901 25.7 118.901 26.94ZM130.442 30H128.402V15.64H130.442V30ZM135.266 30H133.246V15.64H135.266V24.14L139.806 19.4H142.186L137.286 24.54L142.646 30H140.046L135.266 24.98V30ZM147.918 30.2C144.858 30.2 142.798 27.98 142.798 24.64C142.798 21.5 144.938 19.2 147.858 19.2C151.018 19.2 153.118 21.76 152.758 25.2H144.858C145.018 27.36 146.098 28.62 147.878 28.62C149.378 28.62 150.418 27.8 150.758 26.42H152.758C152.238 28.78 150.418 30.2 147.918 30.2ZM147.818 20.72C146.198 20.72 145.098 21.88 144.878 23.86H150.618C150.518 21.9 149.458 20.72 147.818 20.72ZM156.926 24.58V30H154.906V19.4H156.786V21.64C157.526 20.18 159.126 19.26 160.866 19.26V21.36C158.586 21.24 156.926 22.24 156.926 24.58Z" fill="white"/>
</svg>
