<svg width="232" height="44" viewBox="0 0 232 44" fill="none" xmlns="http://www.w3.org/2000/svg">
<rect x="0.5" y="1" width="231" height="42" rx="21" fill="#0D0D0D"/>
<rect x="0.5" y="1" width="231" height="42" rx="21" stroke="#2F2F2F"/>
<path d="M19 20.0718V23.7149" stroke="#C55221" stroke-width="2" stroke-linecap="round" stroke-linejoin="round"/>
<path d="M22.6426 17.0361V26.7511" stroke="#C55221" stroke-width="2" stroke-linecap="round" stroke-linejoin="round"/>
<path d="M26.2871 14V29.7869" stroke="#C55221" stroke-width="2" stroke-linecap="round" stroke-linejoin="round"/>
<path d="M29.9297 17.0361V26.7511" stroke="#C55221" stroke-width="2" stroke-linecap="round" stroke-linejoin="round"/>
<path d="M33.5742 20.0718V23.7149" stroke="#C55221" stroke-width="2" stroke-linecap="round" stroke-linejoin="round"/>
<path d="M57.1134 29.5L50.5334 19.48V29.5H47.7534V15.14H51.0334L57.2934 24.66V15.14H60.0934V29.5H57.1134ZM72.7064 26.86V29.5H63.0464V15.14H72.5664V17.78H66.0864V20.8H71.9664V23.42H66.0864V26.86H72.7064ZM85.9581 29.5L83.2781 19.46L80.5981 29.5H77.5181L73.8381 15.14H76.7981L79.1181 24.88L81.7581 15.14H84.8581L87.4181 24.92L89.7581 15.14H92.7381L89.0381 29.5H85.9581ZM101.672 29.5H98.6323V15.14H104.252C107.872 15.14 109.972 16.82 109.972 19.8C109.972 21.74 108.772 23.28 106.732 23.96L110.432 29.5H106.812L103.572 24.42H101.672V29.5ZM101.672 17.66V21.92H104.112C105.952 21.92 106.932 21.2 106.932 19.8C106.932 18.38 105.952 17.66 104.112 17.66H101.672ZM121.984 26.86V29.5H112.324V15.14H121.844V17.78H115.364V20.8H121.244V23.42H115.364V26.86H121.984ZM133.615 29.5H124.335V15.14H127.375V26.76H133.615V29.5ZM145.363 26.86V29.5H135.703V15.14H145.223V17.78H138.743V20.8H144.623V23.42H138.743V26.86H145.363ZM157.314 29.5L156.234 26.42H150.654L149.554 29.5H146.494L151.894 15.14H155.214L160.574 29.5H157.314ZM153.474 18.46L151.514 24H155.394L153.474 18.46ZM172.953 25.04C172.953 27.78 170.753 29.7 167.153 29.7C163.533 29.7 161.273 27.76 161.053 24.72H164.133C164.213 26.3 165.233 27.32 167.093 27.32C168.633 27.32 169.733 26.64 169.733 25.48C169.733 24.58 169.033 24.04 167.813 23.8L165.453 23.34C163.273 22.92 161.593 21.74 161.593 19.36C161.593 16.8 163.853 14.96 166.953 14.96C170.173 14.96 172.533 16.84 172.733 19.84H169.653C169.553 18.34 168.513 17.32 166.993 17.32C165.513 17.32 164.673 18.16 164.673 19.16C164.673 20.14 165.573 20.56 166.613 20.76L169.073 21.26C171.593 21.76 172.953 22.92 172.953 25.04ZM184.855 26.86V29.5H175.195V15.14H184.715V17.78H178.235V20.8H184.115V23.42H178.235V26.86H184.855Z" fill="#F66629"/>
<path d="M199 20.0718V23.7149" stroke="#C55221" stroke-width="2" stroke-linecap="round" stroke-linejoin="round"/>
<path d="M202.643 17.0361V26.7511" stroke="#C55221" stroke-width="2" stroke-linecap="round" stroke-linejoin="round"/>
<path d="M206.287 14V29.7869" stroke="#C55221" stroke-width="2" stroke-linecap="round" stroke-linejoin="round"/>
<path d="M209.93 17.0361V26.7511" stroke="#C55221" stroke-width="2" stroke-linecap="round" stroke-linejoin="round"/>
<path d="M213.574 20.0718V23.7149" stroke="#C55221" stroke-width="2" stroke-linecap="round" stroke-linejoin="round"/>
</svg>
