<svg width="220" height="48" viewBox="0 0 220 48" fill="none" xmlns="http://www.w3.org/2000/svg">
<rect x="1.08203" y="1" width="217" height="46" rx="23" fill="#151516"/>
<rect x="1.08203" y="1" width="217" height="46" rx="23" stroke="url(#paint0_linear_184_5898)" stroke-width="2"/>
<path d="M33.7233 31H25.8933V18.076H27.8733V29.218H33.7233V31ZM37.7367 19.246C37.7367 19.93 37.1967 20.452 36.4227 20.452C35.6487 20.452 35.0907 19.93 35.0907 19.246C35.0907 18.544 35.6487 18.04 36.4227 18.04C37.1967 18.04 37.7367 18.544 37.7367 19.246ZM37.3407 31H35.5227V21.46H37.3407V31ZM47.4245 28.156C47.4245 30.028 45.9665 31.18 43.4285 31.18C40.9085 31.18 39.4145 29.938 39.2345 27.886H40.9805C41.0525 29.074 42.0065 29.812 43.4645 29.812C44.7425 29.812 45.5885 29.362 45.5885 28.462C45.5885 27.67 45.1025 27.328 43.9145 27.094L42.3665 26.806C40.6025 26.464 39.6125 25.564 39.6125 24.124C39.6125 22.45 41.0705 21.28 43.2845 21.28C45.5705 21.28 47.1185 22.504 47.2805 24.466H45.5345C45.4265 23.314 44.5805 22.648 43.3025 22.648C42.1505 22.648 41.3765 23.134 41.3765 23.962C41.3765 24.736 41.8625 25.096 43.0145 25.312L44.6345 25.618C46.5245 25.96 47.4245 26.788 47.4245 28.156ZM54.6684 29.236V30.838C54.1104 31.09 53.6244 31.18 53.0484 31.18C51.2844 31.18 50.0604 30.226 50.0604 28.12V23.008H47.9544V21.46H50.0604V18.634H51.8784V21.46H54.7584V23.008H51.8784V27.706C51.8784 29.02 52.5084 29.488 53.4804 29.488C53.9124 29.488 54.2904 29.416 54.6684 29.236ZM60.1537 31.18C57.3997 31.18 55.5457 29.182 55.5457 26.176C55.5457 23.35 57.4717 21.28 60.0997 21.28C62.9437 21.28 64.8337 23.584 64.5097 26.68H57.3997C57.5437 28.624 58.5157 29.758 60.1177 29.758C61.4677 29.758 62.4037 29.02 62.7097 27.778H64.5097C64.0417 29.902 62.4037 31.18 60.1537 31.18ZM60.0637 22.648C58.6057 22.648 57.6157 23.692 57.4177 25.474H62.5837C62.4937 23.71 61.5397 22.648 60.0637 22.648ZM68.2606 25.618V31H66.4426V21.46H68.1346V23.044C68.7826 21.982 69.8626 21.28 71.1766 21.28C73.1386 21.28 74.4346 22.54 74.4346 24.826V31H72.6166V25.438C72.6166 23.8 71.8966 22.882 70.5466 22.882C69.3046 22.882 68.2606 23.926 68.2606 25.618ZM84.6066 31.18C81.9066 31.18 79.9266 29.056 79.9266 26.23C79.9266 23.404 81.9066 21.28 84.6066 21.28C87.3066 21.28 89.2866 23.404 89.2866 26.23C89.2866 29.056 87.3066 31.18 84.6066 31.18ZM84.6066 29.578C86.1726 29.578 87.4146 28.318 87.4146 26.23C87.4146 24.142 86.1726 22.9 84.6066 22.9C83.0406 22.9 81.8166 24.142 81.8166 26.23C81.8166 28.318 83.0406 29.578 84.6066 29.578ZM92.9579 25.618V31H91.1399V21.46H92.8319V23.044C93.4799 21.982 94.5599 21.28 95.8739 21.28C97.8359 21.28 99.1319 22.54 99.1319 24.826V31H97.3139V25.438C97.3139 23.8 96.5939 22.882 95.2439 22.882C94.0019 22.882 92.9579 23.926 92.9579 25.618ZM114.902 27.22C114.902 29.47 113.102 31.18 109.97 31.18C106.856 31.18 104.966 29.47 104.804 26.896H106.82C106.91 28.534 107.954 29.596 109.934 29.596C111.572 29.596 112.796 28.822 112.796 27.49C112.796 26.41 112.094 25.87 110.6 25.546L108.728 25.186C106.91 24.826 105.254 23.908 105.254 21.712C105.254 19.534 107.162 17.896 109.844 17.896C112.526 17.896 114.56 19.534 114.722 22.108H112.706C112.598 20.56 111.482 19.48 109.862 19.48C108.188 19.48 107.27 20.47 107.27 21.586C107.27 22.81 108.332 23.242 109.538 23.494L111.446 23.872C113.66 24.322 114.902 25.294 114.902 27.22ZM126.158 26.23C126.158 29.11 124.502 31.18 121.946 31.18C120.65 31.18 119.552 30.532 118.868 29.38V34.474H117.05V21.46H118.742V23.206C119.426 21.982 120.596 21.28 121.946 21.28C124.484 21.28 126.158 23.35 126.158 26.23ZM124.268 26.23C124.268 24.088 123.134 22.882 121.568 22.882C120.056 22.882 118.868 24.088 118.868 26.23C118.868 28.336 120.038 29.56 121.568 29.56C123.134 29.56 124.268 28.372 124.268 26.23ZM131.997 31.18C129.297 31.18 127.317 29.056 127.317 26.23C127.317 23.404 129.297 21.28 131.997 21.28C134.697 21.28 136.677 23.404 136.677 26.23C136.677 29.056 134.697 31.18 131.997 31.18ZM131.997 29.578C133.563 29.578 134.805 28.318 134.805 26.23C134.805 24.142 133.563 22.9 131.997 22.9C130.431 22.9 129.207 24.142 129.207 26.23C129.207 28.318 130.431 29.578 131.997 29.578ZM143.737 29.236V30.838C143.179 31.09 142.693 31.18 142.117 31.18C140.353 31.18 139.129 30.226 139.129 28.12V23.008H137.023V21.46H139.129V18.634H140.947V21.46H143.827V23.008H140.947V27.706C140.947 29.02 141.577 29.488 142.549 29.488C142.981 29.488 143.359 29.416 143.737 29.236ZM147.776 19.246C147.776 19.93 147.236 20.452 146.462 20.452C145.688 20.452 145.13 19.93 145.13 19.246C145.13 18.544 145.688 18.04 146.462 18.04C147.236 18.04 147.776 18.544 147.776 19.246ZM147.38 31H145.562V21.46H147.38V31ZM152.586 31H150.768V23.008H148.662V21.46H150.768V20.758C150.768 18.922 151.758 17.914 153.558 17.914C154.098 17.914 154.53 18.004 154.89 18.148V19.624C154.602 19.498 154.278 19.462 153.954 19.462C153.09 19.462 152.586 19.858 152.586 20.776V21.46H155.25V23.008H152.586V31ZM164.644 21.46L159.874 34.474H157.894L159.262 30.874L155.5 21.46H157.462L160.234 28.732L162.808 21.46H164.644Z" fill="white"/>
<g clip-path="url(#clip0_184_5898)">
<path d="M190.908 22.8825C187.733 20.997 182.496 20.8237 179.465 21.7435C178.979 21.8912 178.464 21.6164 178.317 21.1298C178.169 20.6428 178.443 20.1285 178.931 19.9805C182.41 18.9245 188.193 19.1284 191.848 21.298C192.286 21.5579 192.429 22.1233 192.17 22.5603C191.91 22.9981 191.345 23.1424 190.908 22.8825ZM190.804 25.6751C190.581 26.0365 190.109 26.1499 189.748 25.9279C187.101 24.3009 183.065 23.8296 179.933 24.7802C179.527 24.9029 179.098 24.6739 178.975 24.2686C178.852 23.8625 179.082 23.4344 179.487 23.3109C183.064 22.2254 187.511 22.7512 190.551 24.6194C190.912 24.8417 191.026 25.3145 190.804 25.6751ZM189.599 28.357C189.422 28.6473 189.044 28.7382 188.755 28.5613C186.442 27.1477 183.531 26.8285 180.102 27.6115C179.772 27.6873 179.442 27.4803 179.367 27.1499C179.291 26.8197 179.498 26.4904 179.829 26.415C183.581 25.5573 186.799 25.9264 189.395 27.5128C189.684 27.6895 189.776 28.0677 189.599 28.357ZM185.082 14.1509C179.642 14.1509 175.232 18.5606 175.232 24C175.232 29.4401 179.642 33.8494 185.082 33.8494C190.521 33.8494 194.931 29.4401 194.931 24C194.931 18.5606 190.521 14.1509 185.082 14.1509Z" fill="#1ED760"/>
</g>
<defs>
<linearGradient id="paint0_linear_184_5898" x1="0.0820312" y1="24" x2="219.381" y2="63.122" gradientUnits="userSpaceOnUse">
<stop stop-color="#002B2C"/>
<stop offset="1" stop-color="#1ED760"/>
</linearGradient>
<clipPath id="clip0_184_5898">
<rect width="20" height="20" fill="white" transform="translate(175.082 14)"/>
</clipPath>
</defs>
</svg>
