<svg width="29" height="28" viewBox="0 0 29 28" fill="none" xmlns="http://www.w3.org/2000/svg">
<path d="M21.976 4.84405C21.6438 4.84405 21.3189 4.9425 21.0426 5.12714C20.7664 5.31179 20.5511 5.57417 20.4238 5.88107C20.2967 6.18809 20.2636 6.52583 20.3283 6.85179C20.3932 7.17762 20.5531 7.47702 20.7881 7.7119C21.023 7.9469 21.3224 8.1069 21.6482 8.17167C21.9742 8.23655 22.3119 8.20333 22.6189 8.07607C22.926 7.94893 23.1882 7.73357 23.3729 7.45738C23.5574 7.18107 23.656 6.85631 23.656 6.52405C23.656 6.07845 23.479 5.65107 23.1639 5.33607C22.8489 5.02095 22.4217 4.84405 21.976 4.84405ZM28.416 8.23202C28.3888 7.07048 28.1713 5.92119 27.772 4.83C27.416 3.89643 26.862 3.05095 26.148 2.35202C25.4548 1.6344 24.6075 1.08381 23.67 0.742024C22.5818 0.330595 21.4311 0.108095 20.268 0.0840476C18.784 -1.41916e-08 18.308 0 14.5 0C10.692 0 10.216 -1.41916e-08 8.73202 0.0840476C7.56881 0.108095 6.41833 0.330595 5.33 0.742024C4.3944 1.08726 3.54774 1.63738 2.85202 2.35202C2.1344 3.04524 1.58381 3.89262 1.24202 4.83C0.830595 5.91833 0.608095 7.06881 0.584048 8.23202C0.5 9.71595 0.5 10.192 0.5 14C0.5 17.808 0.5 18.284 0.584048 19.768C0.608095 20.9311 0.830595 22.0818 1.24202 23.17C1.58381 24.1075 2.1344 24.9548 2.85202 25.648C3.54774 26.3626 4.3944 26.9127 5.33 27.258C6.41833 27.6693 7.56881 27.8919 8.73202 27.916C10.216 28 10.692 28 14.5 28C18.308 28 18.784 28 20.268 27.916C21.4311 27.8919 22.5818 27.6693 23.67 27.258C24.6075 26.9161 25.4548 26.3656 26.148 25.648C26.8651 24.9517 27.4196 24.1055 27.772 23.17C28.1713 22.0788 28.3888 20.9296 28.416 19.768C28.416 18.284 28.5 17.808 28.5 14C28.5 10.192 28.5 9.71595 28.416 8.23202ZM25.896 19.6C25.8858 20.4887 25.7249 21.3692 25.42 22.204C25.1964 22.8133 24.8375 23.3638 24.37 23.814C23.9158 24.2767 23.3664 24.635 22.76 24.864C21.9252 25.1689 21.0448 25.3298 20.156 25.34C18.756 25.41 18.238 25.424 14.556 25.424C10.8739 25.424 10.356 25.424 8.95595 25.34C8.03321 25.3573 7.1144 25.2152 6.24 24.92C5.66012 24.6794 5.13595 24.3219 4.7 23.87C4.23536 23.4202 3.88071 22.8693 3.66405 22.26C3.32214 21.4133 3.13262 20.5126 3.10405 19.6C3.10405 18.2 3.02 17.682 3.02 14C3.02 10.318 3.02 9.8 3.10405 8.4C3.11024 7.49155 3.27607 6.59119 3.59405 5.74C3.84048 5.14905 4.21881 4.62238 4.7 4.2C5.12536 3.71869 5.65095 3.33631 6.24 3.08C7.09333 2.77202 7.99274 2.61107 8.9 2.60405C10.3 2.60405 10.818 2.52 14.5 2.52C18.182 2.52 18.7 2.52 20.1 2.60405C20.9887 2.61417 21.8692 2.77512 22.704 3.08C23.3401 3.31607 23.9112 3.7 24.37 4.2C24.8288 4.63 25.1874 5.15583 25.42 5.74C25.7312 6.5925 25.8923 7.4925 25.896 8.4C25.966 9.8 25.98 10.318 25.98 14C25.98 17.682 25.966 18.2 25.896 19.6ZM14.5 6.81798C13.0801 6.82083 11.693 7.2444 10.5137 8.03524C9.33452 8.82607 8.41619 9.94869 7.87464 11.2613C7.33321 12.5738 7.19298 14.0175 7.47167 15.4096C7.75048 16.8019 8.43559 18.0804 9.44048 19.0835C10.4455 20.0864 11.7252 20.769 13.1181 21.045C14.5108 21.3211 15.9542 21.178 17.2657 20.6339C18.5773 20.09 19.6981 19.1694 20.4865 17.9886C21.2752 16.8079 21.6961 15.4199 21.6961 14C21.6979 13.0551 21.5129 12.1193 21.1517 11.2462C20.7906 10.3731 20.2605 9.58 19.5917 8.9125C18.9229 8.245 18.1287 7.71643 17.255 7.3569C16.3811 6.9975 15.4449 6.81429 14.5 6.81798ZM14.5 18.662C13.578 18.662 12.6767 18.3886 11.91 17.8763C11.1433 17.364 10.5457 16.636 10.1929 15.784C9.84 14.9323 9.74774 13.9949 9.92762 13.0905C10.1075 12.1862 10.5514 11.3554 11.2035 10.7035C11.8554 10.0515 12.6862 9.6075 13.5905 9.42762C14.4949 9.24774 15.4323 9.34 16.284 9.69286C17.136 10.0457 17.864 10.6433 18.3763 11.41C18.8886 12.1767 19.162 13.078 19.162 14C19.162 14.6123 19.0414 15.2185 18.8071 15.784C18.5729 16.3498 18.2294 16.8636 17.7965 17.2965C17.3636 17.7295 16.8498 18.0729 16.284 18.3071C15.7185 18.5414 15.1123 18.662 14.5 18.662Z" fill="white"/>
</svg>
