<svg width="245" height="48" viewBox="0 0 245 48" fill="none" xmlns="http://www.w3.org/2000/svg">
<rect x="1.91602" y="1" width="241.167" height="46" rx="23" fill="#151516"/>
<rect x="1.91602" y="1" width="241.167" height="46" rx="23" stroke="url(#paint0_linear_184_5883)" stroke-width="2"/>
<path d="M34.2174 31H26.3874V18.076H28.3674V29.218H34.2174V31ZM38.2308 19.246C38.2308 19.93 37.6908 20.452 36.9168 20.452C36.1428 20.452 35.5848 19.93 35.5848 19.246C35.5848 18.544 36.1428 18.04 36.9168 18.04C37.6908 18.04 38.2308 18.544 38.2308 19.246ZM37.8348 31H36.0168V21.46H37.8348V31ZM47.9186 28.156C47.9186 30.028 46.4606 31.18 43.9226 31.18C41.4026 31.18 39.9086 29.938 39.7286 27.886H41.4746C41.5466 29.074 42.5006 29.812 43.9586 29.812C45.2366 29.812 46.0826 29.362 46.0826 28.462C46.0826 27.67 45.5966 27.328 44.4086 27.094L42.8606 26.806C41.0966 26.464 40.1066 25.564 40.1066 24.124C40.1066 22.45 41.5646 21.28 43.7786 21.28C46.0646 21.28 47.6126 22.504 47.7746 24.466H46.0286C45.9206 23.314 45.0746 22.648 43.7966 22.648C42.6446 22.648 41.8706 23.134 41.8706 23.962C41.8706 24.736 42.3566 25.096 43.5086 25.312L45.1286 25.618C47.0186 25.96 47.9186 26.788 47.9186 28.156ZM55.1625 29.236V30.838C54.6045 31.09 54.1185 31.18 53.5425 31.18C51.7785 31.18 50.5545 30.226 50.5545 28.12V23.008H48.4485V21.46H50.5545V18.634H52.3725V21.46H55.2525V23.008H52.3725V27.706C52.3725 29.02 53.0025 29.488 53.9745 29.488C54.4065 29.488 54.7845 29.416 55.1625 29.236ZM60.6479 31.18C57.8939 31.18 56.0399 29.182 56.0399 26.176C56.0399 23.35 57.9659 21.28 60.5939 21.28C63.4379 21.28 65.3279 23.584 65.0039 26.68H57.8939C58.0379 28.624 59.0099 29.758 60.6119 29.758C61.9619 29.758 62.8979 29.02 63.2039 27.778H65.0039C64.5359 29.902 62.8979 31.18 60.6479 31.18ZM60.5579 22.648C59.0999 22.648 58.1099 23.692 57.9119 25.474H63.0779C62.9879 23.71 62.0339 22.648 60.5579 22.648ZM68.7548 25.618V31H66.9368V21.46H68.6288V23.044C69.2768 21.982 70.3568 21.28 71.6708 21.28C73.6328 21.28 74.9288 22.54 74.9288 24.826V31H73.1108V25.438C73.1108 23.8 72.3908 22.882 71.0408 22.882C69.7988 22.882 68.7548 23.926 68.7548 25.618ZM85.1007 31.18C82.4007 31.18 80.4207 29.056 80.4207 26.23C80.4207 23.404 82.4007 21.28 85.1007 21.28C87.8007 21.28 89.7807 23.404 89.7807 26.23C89.7807 29.056 87.8007 31.18 85.1007 31.18ZM85.1007 29.578C86.6667 29.578 87.9087 28.318 87.9087 26.23C87.9087 24.142 86.6667 22.9 85.1007 22.9C83.5347 22.9 82.3107 24.142 82.3107 26.23C82.3107 28.318 83.5347 29.578 85.1007 29.578ZM93.452 25.618V31H91.634V21.46H93.326V23.044C93.974 21.982 95.054 21.28 96.368 21.28C98.33 21.28 99.626 22.54 99.626 24.826V31H97.808V25.438C97.808 23.8 97.088 22.882 95.738 22.882C94.496 22.882 93.452 23.926 93.452 25.618ZM111.328 26.158V31H109.33V26.158L104.686 18.076H106.846L110.392 24.304L113.974 18.076H115.99L111.328 26.158ZM119.677 31.18C116.977 31.18 114.997 29.056 114.997 26.23C114.997 23.404 116.977 21.28 119.677 21.28C122.377 21.28 124.357 23.404 124.357 26.23C124.357 29.056 122.377 31.18 119.677 31.18ZM119.677 29.578C121.243 29.578 122.485 28.318 122.485 26.23C122.485 24.142 121.243 22.9 119.677 22.9C118.111 22.9 116.887 24.142 116.887 26.23C116.887 28.318 118.111 29.578 119.677 29.578ZM132.168 27.076V21.46H133.986V31H132.294V29.488C131.79 30.478 130.674 31.18 129.378 31.18C127.452 31.18 126.12 30.046 126.12 27.598V21.46H127.938V27.238C127.938 28.894 128.766 29.578 129.954 29.578C131.178 29.578 132.168 28.57 132.168 27.076ZM145.547 31H143.567V19.858H139.355V18.076H149.759V19.858H145.547V31ZM156.602 27.076V21.46H158.42V31H156.728V29.488C156.224 30.478 155.108 31.18 153.812 31.18C151.886 31.18 150.554 30.046 150.554 27.598V21.46H152.372V27.238C152.372 28.894 153.2 29.578 154.388 29.578C155.612 29.578 156.602 28.57 156.602 27.076ZM170.053 26.23C170.053 29.092 168.397 31.18 165.823 31.18C164.473 31.18 163.321 30.496 162.637 29.29V31H160.945V18.076H162.763V23.098C163.429 21.928 164.527 21.28 165.823 21.28C168.379 21.28 170.053 23.332 170.053 26.23ZM168.163 26.23C168.163 24.07 167.029 22.882 165.463 22.882C163.951 22.882 162.763 24.052 162.763 26.194C162.763 28.3 163.915 29.56 165.463 29.56C167.029 29.56 168.163 28.354 168.163 26.23ZM175.82 31.18C173.066 31.18 171.212 29.182 171.212 26.176C171.212 23.35 173.138 21.28 175.766 21.28C178.61 21.28 180.5 23.584 180.176 26.68H173.066C173.21 28.624 174.182 29.758 175.784 29.758C177.134 29.758 178.07 29.02 178.376 27.778H180.176C179.708 29.902 178.07 31.18 175.82 31.18ZM175.73 22.648C174.272 22.648 173.282 23.692 173.084 25.474H178.25C178.16 23.71 177.206 22.648 175.73 22.648Z" fill="white"/>
<g clip-path="url(#clip0_184_5883)">
<path d="M219.473 17.1231C219.138 15.8937 218.15 14.9256 216.895 14.5971C214.62 14 205.499 14 205.499 14C205.499 14 196.379 14 194.104 14.5971C192.849 14.9256 191.861 15.8937 191.525 17.1231C190.916 19.3512 190.916 24 190.916 24C190.916 24 190.916 28.6488 191.525 30.8771C191.861 32.1063 192.849 33.0743 194.104 33.403C196.379 34 205.499 34 205.499 34C205.499 34 214.62 34 216.895 33.403C218.15 33.0743 219.138 32.1063 219.473 30.8771C220.083 28.6488 220.083 24 220.083 24C220.083 24 220.083 19.3512 219.473 17.1231Z" fill="#ED1D24"/>
<path d="M202.516 28.2207L210.139 24.0001L202.516 19.7792V28.2207Z" fill="white"/>
</g>
<defs>
<linearGradient id="paint0_linear_184_5883" x1="11.6727" y1="2.01536e-06" x2="240.163" y2="29.4075" gradientUnits="userSpaceOnUse">
<stop stop-color="#1A0101"/>
<stop offset="1" stop-color="#ED1D24"/>
</linearGradient>
<clipPath id="clip0_184_5883">
<rect width="29.1667" height="20" fill="white" transform="translate(190.916 14)"/>
</clipPath>
</defs>
</svg>
