<svg width="41" height="40" viewBox="0 0 41 40" fill="none" xmlns="http://www.w3.org/2000/svg">
<path d="M36.9696 11.2812C36.784 10.5397 36.406 9.86027 35.8738 9.31157C35.3416 8.76288 34.6739 8.36435 33.9384 8.15625C31.2509 7.5 20.5009 7.5 20.5009 7.5C20.5009 7.5 9.75089 7.5 7.06339 8.21875C6.32784 8.42685 5.66023 8.82538 5.128 9.37407C4.59576 9.92277 4.21775 10.6022 4.03214 11.3437C3.54029 14.0712 3.2997 16.838 3.31339 19.6094C3.29586 22.4016 3.53647 25.1895 4.03214 27.9375C4.23677 28.656 4.62325 29.3096 5.15424 29.8351C5.68524 30.3606 6.3428 30.7403 7.06339 30.9375C9.75089 31.6562 20.5009 31.6563 20.5009 31.6563C20.5009 31.6563 31.2509 31.6562 33.9384 30.9375C34.6739 30.7294 35.3416 30.3309 35.8738 29.7822C36.406 29.2335 36.784 28.554 36.9696 27.8125C37.4577 25.1056 37.6983 22.3599 37.6884 19.6094C37.7059 16.8171 37.4653 14.0292 36.9696 11.2812Z" stroke="white" stroke-width="3" stroke-linecap="round" stroke-linejoin="round"/>
<path d="M16.9844 24.7187L25.9688 19.6094L16.9844 14.5V24.7187Z" stroke="white" stroke-width="3" stroke-linecap="round" stroke-linejoin="round"/>
</svg>
